<?xml version="1.0" encoding="UTF-8"?>
<svg id="Layer_2" data-name="Layer 2" xmlns="http://www.w3.org/2000/svg" viewBox="0 0 368.44 432.91">
  <defs>
    <style>
      .cls-1 {
        fill: #bc446d;
      }

      .cls-1, .cls-2, .cls-3, .cls-4, .cls-5, .cls-6, .cls-7, .cls-8, .cls-9, .cls-10, .cls-11, .cls-12, .cls-13, .cls-14, .cls-15, .cls-16, .cls-17, .cls-18, .cls-19, .cls-20, .cls-21, .cls-22, .cls-23 {
        stroke-width: 0px;
      }

      .cls-2 {
        fill: #f1cb33;
      }

      .cls-3 {
        fill: #aa335e;
      }

      .cls-4 {
        fill: #7cc0cd;
      }

      .cls-5 {
        fill: #281025;
      }

      .cls-6 {
        fill: #ea8d95;
      }

      .cls-7 {
        fill: #f9fee3;
      }

      .cls-8 {
        fill: #52b5af;
      }

      .cls-9 {
        fill: #fce90d;
      }

      .cls-10 {
        fill: #ddfd6d;
      }

      .cls-11 {
        fill: #fceee8;
      }

      .cls-12 {
        fill: #cd557b;
      }

      .cls-13 {
        fill: #003a3d;
      }

      .cls-14 {
        fill: #2f8f9f;
      }

      .cls-15 {
        fill: #259898;
      }

      .cls-16 {
        fill: #dcf4f7;
      }

      .cls-17 {
        fill: #aadcda;
      }

      .cls-18 {
        fill: #fcfdfd;
      }

      .cls-19 {
        fill: #5ba67b;
      }

      .cls-20 {
        fill: #3c102d;
      }

      .cls-21 {
        fill: #71d6dc;
      }

      .cls-22 {
        fill: #146570;
      }

      .cls-23 {
        fill: #d66682;
      }
    </style>
  </defs>
  <g id="Layer_1-2" data-name="Layer 1">
    <g>
      <path class="cls-18" d="M177.84.32c33.66-4.29,56.93,36,32.75,61.25,55.43,9.89,97.93,48.55,118.5,100.5,1.13,2.85,4.05,14.83,4.5,15.5,2.38,3.54,31.18,8.45,34.5,73.5,1.03,20.12.22,62-8,80-11.54,25.28-38.69,17.75-52.75-.75-8.92,22.76-28.46,37.92-47.25,52.25-.13,2.18,25.8,10.21,20.5,24.5-6.77,18.28-70.03,25.1-87.25,25.75-23.26.88-81.35-4.18-99.5-19-16.09-13.14.32-25.03,14-29,.09-.11-.68-2.61-.75-2.75-1.58-3.14-37.71-26.16-45.75-52.25-10.18,12.29-28.21,23.86-43.5,13C-2.96,328.04-1.73,252.54,2.59,229.57c8.47-45.08,33.31-49.68,35-52.5.46-.78,1.2-8.79,4.5-17.5,17.71-46.7,64.44-89.15,114.5-97-10.6-13.54-13.36-30.51-4-45.5,4.73-7.57,16.42-15.63,25.25-16.75Z"/>
      <path class="cls-5" d="M179.84,12.32c22.92-2.78,38.02,24.32,23.25,42.25-5.88,7.13-8.64,1.92-7.5,17.5,66.55,6.94,114.08,52.93,129.5,117,39.84,5.03,33.67,106.7,26.5,131-11.5,38.94-30.86.49-49.75-7.25-11.36,41.4-45.24,54.97-47.25,58.25-.68,1.11-3.8,13.37-10,24-19.14,32.83-54.02,39.1-56.75-7.25-9.74-1.95-3.77,5-10.75,19.75-11.55,24.43-38.18,12.43-52-10-7.26-11.78-10.22-25.29-11-26.5-2.11-3.27-35.63-16.95-47.25-59.25-18.51,8.31-36.23,43.9-48.25,12.75-8.38-21.71-8.49-78.53-2-101.5,10.13-35.83,26.74-33.38,28.5-35,.89-.82,3.85-14.23,7.5-23,21.57-51.85,63.77-87.27,120.5-93,.87-16.01-.93-10.37-5.75-15.25-17.78-18.01-4.15-42.48,12.5-44.5Z"/>
      <g>
        <path class="cls-22" d="M314.59,257.32c-5.07-6.43-11.37-12.17-19-15.5,4.11-18.41,1.1-41.82-8.5-58.25-10.58-18.12-30.67-31.13-50-38.25,7.27-15.51,16.06-25.56,29.5-36,39.37,31.22,70.02,103.72,48,148Z"/>
        <path class="cls-18" d="M116.09,100.82l7,10.25c-21.31,18.12-34.57,43.9-42,70.5-.24,2.11.18.9,1.5-.25-1.02,2.88-3.25,5.25-4.5,8-31.29-11.49-27.85,33.83-30,53-2.08-12.89-.37-26.5,2-39.25,7.6-40.87,30.07-80.21,66-102.25Z"/>
        <path class="cls-17" d="M78.09,189.32c-6.96,15.31-9.08,36.75-5,53-7.92,3.38-16.08,9.86-17,19-4.81-7.56-6.44-9.35-8-19,2.15-19.17-1.29-64.49,30-53Z"/>
        <path class="cls-16" d="M84.59,301.82c1.21,2.37,3.74,26.49,22,47.75,4.39,5.11,11.91,10.3,13,13.75-26.8-15.37-44.17-36.92-45.5-68.75.4-1.3,10.13,6.52,10.5,7.25Z"/>
        <g>
          <path class="cls-3" d="M203.59,398.82c-1.27-3.78-2.7-7.4-2.5-11.5,11.46-2.03,22.78-4.02,34-7.25-5.7,11.9-14.05,23.23-25.75,29.75-1.97.03-5.03-8.85-5.75-11Z"/>
          <path class="cls-23" d="M201.09,387.32c-.2,4.1,1.23,7.72,2.5,11.5l4,11.75c9.05,1.07,20.9-15.58,25.5-23,3.21-5.19,1.49-10.44,10.5-10.5-11.17,30.44-44.23,56.88-47,10.5.42-.59,3.58-.09,4.5-.25Z"/>
        </g>
        <g>
          <path class="cls-6" d="M43.09,282.32c-7.09,11.75-14.33,23.69-16.5,37.5-.04-.13-.16.62-1-2.5-.87-21.29,5.25-42.8,18-60,1.09,2.63,8.02,12,8,12.75-.02.75-5.1,6.61-8.5,12.25Z"/>
          <path class="cls-6" d="M42.09,200.82c-.97,7.44-2.77,14.76-3.5,22.25-.45,4.61.64,12.36.5,13-.31,1.42-8.01,4.9-16.5,23.75-1.19.23-1.11-.52-1-1.75.49-5.64.77-16.33,1.5-20,1.44-7.22,12.65-31.42,19-37.25Z"/>
          <path class="cls-18" d="M43.59,257.32c-12.75,17.2-18.87,38.71-18,60-6.58-24.54-1.17-51.45,15.25-71,.62,3.06,1.61,8.25,2.75,11Z"/>
          <path class="cls-11" d="M42.09,200.82c-6.35,5.83-17.56,30.03-19,37.25-.73,3.67-1.01,14.36-1.5,20-.11,1.23-.19,1.98,1,1.75-3.24,7.19-3.18,8.16-2.5-6.25.94-19.98,7.24-43.34,22.25-57.25,1.08.51.06,2.13-.25,4.5Z"/>
          <g>
            <path class="cls-3" d="M29.59,325.82c-.46-1.04-1.02-.69-1-2.75.06-6.94,10.86-27.05,15-33.75,3.28-5.32,6.91-10.56,10.75-15.5.58,3,9.99,11.01,10.25,11.75.3.85.05,14.61,1,18-12.55,6.34-23.24,15.46-33.25,25.25-1.12.12-2.36-2.12-2.75-3Z"/>
            <path class="cls-20" d="M43.59,289.32c-4.14,6.7-14.94,26.81-15,33.75-.02,2.06.54,1.71,1,2.75-2.46-.51-2.36-4.18-3-6,2.17-13.81,9.41-25.75,16.5-37.5,9.45-4.18-.68,2.18.5,7Z"/>
          </g>
        </g>
        <g>
          <path class="cls-6" d="M148.09,383.82c2.24,8.59,5.46,16.85,10,24.5.45.76.57,1.8,1.5,2-.14.33,1.07.67,0,2-2.9.6-2.41.21-5-.5-10.28-9.1-20.62-19.15-24-33,5.77,1.68,11.66,3.66,17.5,5Z"/>
          <path class="cls-3" d="M158.09,408.32c-4.54-7.65-7.76-15.91-10-24.5,5.75,1.32,12.17,1.65,18,2.75-1.12,7.37-2.2,16.76-8,21.75Z"/>
          <path class="cls-18" d="M130.59,378.82c3.38,13.85,13.72,23.9,24,33-13.98-3.84-24.45-20.83-29-33.75.07-1.69,3.64.36,5,.75Z"/>
          <path class="cls-23" d="M159.59,412.32c1.07-1.33-.14-1.67,0-2,.25-.58,2.82-2.51,5.5-11.25,3.03-9.87-.38-13.52,6.75-12.25,2.03.9-.7,23.11-12.25,25.5Z"/>
        </g>
        <g>
          <path class="cls-3" d="M321.09,282.82c3.94,6.4,17.82,35.84,18,42,.33,11.68-12.49-5.33-20.75-11.5-5.86-4.37-14.94-8.41-15.25-9.25-.3-.8-.2-16.17,0-17,.2-.84,11.18-9.87,11.75-12.75.53-.05,5.62,7.48,6.25,8.5Z"/>
          <path class="cls-3" d="M341.59,321.82c-3.05-16.24-9.39-26.79-17.5-40.5-3.71-6.27-6.99-10.11-7-10.75-.02-.77,6.99-11.38,7.75-13.25,6.77,7.53,19.33,42.45,19.75,50.25.18,3.43-1.64,11.03-3,14.25Z"/>
          <path class="cls-12" d="M328.34,246.32c12.91,16.79,20.08,38.28,17,59.5-2.96-9.89-4.95-20.11-8.75-29.75-4.42-11.22-10.84-19.83-11-21-.14-1,2.31-8.63,2.75-8.75Z"/>
          <path class="cls-20" d="M324.09,281.32c8.11,13.71,14.45,24.26,17.5,40.5-.36.85-.08,2.23-2.5,3-.18-6.16-14.06-35.6-18-42,.4-2.02,1.18-2.21,3-1.5Z"/>
          <g>
            <path class="cls-3" d="M343.59,224.32c3.58,11.59,5.76,26.99,3.75,39-4.75-16.5-16.33-26.17-16.75-27.75-2.1-7.82,6.87-1.35,6.5,4,1.37,2.21,1.59-8.66,1-12.75,3.26.38,2.12-4.37,5.5-2.5Z"/>
            <path class="cls-12" d="M343.59,224.32c-3.38-1.87-2.24,2.88-5.5,2.5-.46-3.21-6.65-20.4-7.75-20.5.1,1.42-.24,1.82-.25,2-.9-2.58-4.29-12.24-1.25-10,5.46,1.92,13.02,20.4,14.75,26Z"/>
            <path class="cls-1" d="M330.09,208.32c3.04,8.73,8.86,17.21,6.75,27-2.6-4.02-5.61-4.89-5.75-5.25-.4-1.01-1.05-20.66-1-21.75Z"/>
          </g>
        </g>
        <g>
          <path class="cls-2" d="M191.59,22.32c20.71,10.35,2.95,43.01-17.5,29-10.17-14.76.18-30.99,17.5-29Z"/>
          <path class="cls-18" d="M191.59,22.32c-17.32-1.99-27.67,14.24-17.5,29-17.94-12.29-.66-38.07,17.5-29Z"/>
          <path class="cls-7" d="M186.59,80.82c-.02.5.03,1,0,1.5-1.96-5.14,2.62-9.66-5-8.5.05-3.25-.04-6.5,0-9.75l5-.5c-.2,5.73.28,11.53,0,17.25Z"/>
          <path class="cls-10" d="M186.59,82.32c-.12,1.66.34,3.58-1,5h-.5c-.31-.55-.68-.95-1-1.5,4.74-2.56-2.86-10.45-.5-1-.58-1.16-2.35-3.02-2.5-4-.05-.35.48-5.6.5-7,7.62-1.16,3.04,3.36,5,8.5Z"/>
          <path class="cls-10" d="M184.09,85.82c-.18-.31-.34-.68-.5-1-2.36-9.45,5.24-1.56.5,1Z"/>
        </g>
        <g>
          <g>
            <path class="cls-22" d="M164.09,377.32c16.98-17.25,30-27.64,40-51,.08,0,.96-.98,1.25-1,31.88-2.47,65.13-10.05,90-31.5,1.79,35.3-29.43,65.08-60.5,76.5-23.7,8.71-45.91,10.47-70.75,7Z"/>
            <g>
              <path class="cls-9" d="M232.34,332.32c10.72-.82,10.61,14.56,1.5,15.5-9.67,1-10.51-14.81-1.5-15.5Z"/>
              <path class="cls-22" d="M231.84,335.82c13.34.33-1.29,16.52-2.25,2.75l2.25-2.75Z"/>
            </g>
          </g>
          <g>
            <path class="cls-15" d="M204.09,326.32c-10,23.36-23.02,33.75-40,51-16.61-2.32-29.82-5.58-44.5-14-1.09-3.45-8.61-8.64-13-13.75-18.26-21.26-20.79-45.38-22-47.75,36.19,19.47,78.6,27.31,119.5,24.5Z"/>
            <g>
              <path class="cls-9" d="M137.34,333.32c12.5-2.13,14.74,15.26,4.5,17-13.47,2.28-14.58-15.28-4.5-17Z"/>
              <path class="cls-19" d="M138.34,337.82c13.3.84-2.04,15.46-2.25,1.75l2.25-1.75Z"/>
            </g>
          </g>
        </g>
        <g>
          <path class="cls-8" d="M179.09,80.82c10.03,9.55,1.98,10.84-.5,16.25-.38.82.68,1.47.5,2-.11.32-1.36,1.4-1.5,2-.75,3.2-.25,6.86-.5,8-2.04,9.2-5.12,18.12-5,27.75-24.87,1.77-55.08,11.03-74.25,27.5-7.6,6.53-13.22,15.23-15.25,17-1.32,1.15-1.74,2.36-1.5.25,7.43-26.6,20.69-52.38,42-70.5l-7-10.25c18.99-11.65,40.58-19.47,63-20Z"/>
          <g>
            <path class="cls-15" d="M181.09,80.82c.15.98,1.92,2.84,2.5,4,.16.32.32.69.5,1,.32.55.69.95,1,1.5.07.13-.24,3.27.5,0,1.34-1.42.88-3.34,1-5,.03-.5-.02-1,0-1.5.43-.05.46.12.5.5,1.05,9.01,8.96,5.51,5.5,0,27.09.64,52.82,11.21,74,28-13.44,10.44-22.23,20.49-29.5,36-20.39-7.51-43.39-10.04-65-8.5-.12-9.63,2.96-18.55,5-27.75.25-1.14-.25-4.8.5-8,.14-.6,1.39-1.68,1.5-2,.18-.53-.88-1.18-.5-2,2.48-5.41,10.53-6.7.5-16.25h2Z"/>
            <path class="cls-21" d="M192.59,81.32c3.46,5.51-4.45,9.01-5.5,0,1.92-1.16,3.76-.04,5.5,0Z"/>
            <path class="cls-13" d="M185.09,87.32h.5c-.74,3.27-.43.13-.5,0Z"/>
            <g>
              <path class="cls-9" d="M183.84,97.32c9.97-2.01,11.42,12.03,4,13.5-10.46,2.07-11.18-12.05-4-13.5Z"/>
              <path class="cls-14" d="M185.84,100.82c9.29,2.91-2.74,12.86-2.75,2.25l2.75-2.25Z"/>
            </g>
          </g>
        </g>
        <g>
          <path class="cls-6" d="M73.09,242.32c13.69,54.55,96.44,59.35,141,54l-1,20c-53.53,6.21-125.72-5.8-157-55,.92-9.14,9.08-15.62,17-19Z"/>
          <path class="cls-23" d="M314.59,257.32c-18.02,36.24-63.4,54.58-101.5,59l1-20c32.87-3.95,73.34-17.94,81.5-54.5,7.63,3.33,13.93,9.07,19,15.5Z"/>
          <g>
            <path class="cls-5" d="M237.09,145.32c19.33,7.12,39.42,20.13,50,38.25,9.6,16.43,12.61,39.84,8.5,58.25-8.16,36.56-48.63,50.55-81.5,54.5-44.56,5.35-127.31.55-141-54-4.08-16.25-1.96-37.69,5-53,1.25-2.75,3.48-5.12,4.5-8,2.03-1.77,7.65-10.47,15.25-17,19.17-16.47,49.38-25.73,74.25-27.5,21.61-1.54,44.61.99,65,8.5Z"/>
            <path class="cls-23" d="M224.09,286.32c1.98-7.29,3.09-14.46,3.5-22,24.31,19.05,51.32-27.04,29.25-44-4.85-3.73-20.24-8.64-22.75-4.5-3.56.12-5.36.55-8.5,2.5-.76-22.06,1.22-44.23,9-65,23.65,8.72,45.47,26.46,52,51.75,12.17,47.14-20.04,73.14-62.5,81.25Z"/>
            <path class="cls-18" d="M146.09,150.32c1.99,6.94-6.99,6.82-18.75,15-16.62,11.56-28.31,28.7-33.25,48.25-.92,3.62-.75,9.09-1,9.5-.49.82-7.58-1.42-13,11.75-4.23-23.66,5.03-48.43,23.25-64,12.13-10.37,27.56-16.38,42.75-20.5Z"/>
            <path class="cls-5" d="M234.09,215.82c20.89-.69,26.74,27.83,13.25,38.5-8.89,7.03-22.84,4.52-28.75-5-5.95-9.57-2.68-24.99,7-31,3.14-1.95,4.94-2.38,8.5-2.5Z"/>
            <path class="cls-4" d="M227.59,264.32c-3.09-2.42-9.93-11.43-9-15,5.91,9.52,19.86,12.03,28.75,5,13.49-10.67,7.64-39.19-13.25-38.5,2.51-4.14,17.9.77,22.75,4.5,22.07,16.96-4.94,63.05-29.25,44Z"/>
            <g>
              <path class="cls-6" d="M234.59,153.32c-7.78,20.77-9.76,42.94-9,65-9.68,6.01-12.95,21.43-7,31-.93,3.57,5.91,12.58,9,15-.41,7.54-1.52,14.71-3.5,22-43.48,8.31-133.84,5.31-144-51.5,5.42-13.17,12.51-10.93,13-11.75.25-.41.08-5.88,1-9.5,4.94-19.55,16.63-36.69,33.25-48.25,11.76-8.18,20.74-8.06,18.75-15,28.29-7.68,60.83-7.2,88.5,3Z"/>
              <path class="cls-5" d="M135.59,215.82c11.69,1.06,21.69,16.56,17,29.5-5.17,14.26-27.15,18.34-35.5,4.75-8.44-13.73,1.13-35.83,18.5-34.25Z"/>
              <path class="cls-17" d="M135.59,215.82c-17.37-1.58-26.94,20.52-18.5,34.25,8.35,13.59,30.33,9.51,35.5-4.75.43,5.4-5.35,14.32-9.75,18-7.95,6.65-16.05,8.16-25.25,3-13.47-11.88-15.21-30.08-5.5-45,5.59-5.79,14.35-8.38,22.25-7,.27.05,1.59.8,1.25,1.5Z"/>
              <path class="cls-5" d="M167.84,243.82c5.27-1.68,4.29,9.1,13,10.5,14.61,2.35,14.21-14.14,20.25-9.25,1.8,20.95-35.34,22.42-35,.5l1.75-1.75Z"/>
              <path class="cls-18" d="M117.59,266.32c-15.21-8.54-17.12-32.98-5.5-45-9.71,14.92-7.97,33.12,5.5,45Z"/>
            </g>
          </g>
        </g>
      </g>
    </g>
  </g>
</svg>