<?xml version="1.0" encoding="UTF-8"?>
<svg xmlns="http://www.w3.org/2000/svg" xmlns:xlink="http://www.w3.org/1999/xlink" width="72pt" height="72pt" viewBox="0 0 72 72" version="1.1">
<g id="surface14069">
<path style=" stroke:none;fill-rule:nonzero;fill:rgb(8.235294%,39.607844%,75.294119%);fill-opacity:1;" d="M 28.050781 20.652344 L 28.058594 20.652344 C 28.214844 19.988281 28.78125 19.5 29.488281 19.5 L 49.699219 19.5 C 49.722656 19.5 49.75 19.488281 49.773438 19.492188 C 49.34375 12.324219 43.332031 9 38.023438 9 L 17.816406 9 C 17.105469 9 16.539062 9.503906 16.382812 10.164062 L 16.378906 10.164062 L 7.542969 50.71875 L 7.5625 50.722656 C 7.542969 50.816406 7.503906 50.910156 7.503906 51.011719 C 7.503906 51.839844 8.175781 52.5 9.003906 52.5 L 21.109375 52.5 Z M 28.050781 20.652344 "/>
<path style=" stroke:none;fill-rule:nonzero;fill:rgb(1.176471%,60.784316%,89.803922%);fill-opacity:1;" d="M 49.773438 19.492188 C 49.855469 20.804688 49.765625 22.234375 49.429688 23.8125 C 47.507812 32.804688 40.5625 37.488281 31.976562 37.488281 C 31.976562 37.488281 26.773438 37.488281 25.507812 37.488281 C 24.726562 37.488281 24.359375 37.945312 24.1875 38.296875 L 21.578125 50.371094 L 21.121094 52.511719 L 21.113281 52.511719 L 19.21875 61.207031 L 19.238281 61.210938 C 19.214844 61.304688 19.179688 61.398438 19.179688 61.5 C 19.179688 62.328125 19.847656 63 20.679688 63 L 31.679688 63 L 31.699219 62.984375 C 32.40625 62.972656 32.96875 62.46875 33.117188 61.804688 L 33.140625 61.78125 L 35.859375 49.15625 C 35.859375 49.15625 36.050781 47.953125 37.316406 47.953125 C 38.582031 47.953125 43.582031 47.953125 43.582031 47.953125 C 52.167969 47.953125 59.183594 43.292969 61.105469 34.300781 C 63.269531 24.160156 56.035156 19.527344 49.773438 19.492188 Z M 49.773438 19.492188 "/>
<path style=" stroke:none;fill-rule:nonzero;fill:rgb(15.686275%,20.784314%,57.647061%);fill-opacity:1;" d="M 29.488281 19.5 C 28.777344 19.5 28.210938 19.988281 28.058594 20.652344 L 28.050781 20.652344 L 24.1875 38.296875 C 24.355469 37.945312 24.726562 37.488281 25.507812 37.488281 C 26.773438 37.488281 31.859375 37.488281 31.859375 37.488281 C 40.445312 37.488281 47.507812 32.808594 49.429688 23.816406 C 49.765625 22.234375 49.851562 20.804688 49.773438 19.492188 C 49.75 19.488281 49.722656 19.5 49.699219 19.5 Z M 29.488281 19.5 "/>
</g>
</svg>
