<?xml version="1.0" ?><svg viewBox="0 0 24 24" xmlns="http://www.w3.org/2000/svg"><defs><style>.a{fill:#b2b2b2;}.b{fill:#eee;}.c{fill:#e3bfb3;}.d{fill:#ffdda1;}.e{fill:#ffbc44;}.f{fill:none;stroke:#191919;stroke-linecap:round;stroke-linejoin:round;}</style></defs><title/><path class="a" d="M6.3,18.958h8a23.748,23.748,0,0,1,.456-2.676L6.914,14.624A24.8,24.8,0,0,0,6.3,18.958Z"/><path class="b" d="M8.353,10.5a20.93,20.93,0,0,0-1.439,4.127l7.837,1.658a16.143,16.143,0,0,1,.819-2.58Z"/><path class="c" d="M8.353,10.5,15.57,13.7a11.607,11.607,0,0,1,1.344-2.385L10.637,6.769A19.964,19.964,0,0,0,8.353,10.5Z"/><path class="d" d="M10.637,6.769l6.277,4.548a9.862,9.862,0,0,1,1.918-1.972L13.646,3.6A21.788,21.788,0,0,0,10.637,6.769Z"/><path class="e" d="M17.19,1.042A26.427,26.427,0,0,0,13.646,3.6l5.186,5.742a10.683,10.683,0,0,1,2.373-1.383Z"/><path class="f" d="M17.8,14.458v6.5a2,2,0,0,1-2,2H4.8a2,2,0,0,1-2-2v-6.5"/><line class="f" x1="14.295" x2="6.295" y1="18.958" y2="18.958"/><line class="f" x1="14.682" x2="6.856" y1="16.273" y2="14.611"/><line class="f" x1="15.618" x2="8.306" y1="13.724" y2="10.476"/><line class="f" x1="17.062" x2="10.584" y1="11.425" y2="6.731"/><line class="f" x1="18.952" x2="13.588" y1="9.477" y2="3.54"/><line class="f" x1="21.205" x2="17.19" y1="7.962" y2="1.042"/></svg>